<svg width="240" height="234" viewBox="0 0 240 234" fill="none" xmlns="http://www.w3.org/2000/svg">
<g clip-path="url(#clip0_2361_5705)">
<path d="M148.052 168.176C147.987 168.634 147.986 168.831 147.986 169.027C147.986 170.01 148.576 170.338 150.54 170.403L150.409 171.648H142.16L142.291 170.469C143.862 170.403 144.451 170.141 144.648 168.831L145.892 158.48C145.957 158.087 145.957 157.825 145.957 157.628C145.957 156.711 145.368 156.514 143.993 156.449L144.124 155.27H151.718C155.646 155.27 157.806 156.842 157.806 159.659C157.806 162.935 155.319 165.097 151.718 165.097H148.445L148.052 168.176ZM148.576 163.721H150.409C152.896 163.721 154.402 162.41 154.402 159.79C154.402 157.825 153.42 156.645 150.998 156.645H149.492L148.576 163.721Z" fill="#F7F7F2"/>
<path d="M165.989 166.145H165.923C165.596 166.996 165.269 167.717 164.483 168.962C163.305 170.862 161.995 171.844 160.555 171.844C158.853 171.844 157.871 170.469 157.871 168.307C157.871 163.917 161.079 160.052 165.138 160.052C166.316 160.052 167.233 160.445 167.887 161.166L169.262 159.921H170.44L169.655 162.345C169 164.965 168.411 168.307 168.411 169.486C168.411 169.879 168.542 170.075 168.804 170.075C169.262 170.075 169.655 169.682 170.309 168.962L171.029 169.617C169.786 171.124 168.673 171.844 167.102 171.844C165.792 171.844 165.203 171.124 165.203 169.879C165.269 168.962 165.661 167.324 165.989 166.145ZM164.483 167.193C165.53 165.49 166.381 163.131 166.578 161.886C166.316 161.559 165.858 161.362 165.203 161.362C162.65 161.362 160.882 165.031 160.882 167.979C160.882 169.093 161.144 169.813 161.864 169.813C162.715 169.748 163.501 168.896 164.483 167.193Z" fill="#F7F7F2"/>
<path d="M176.399 168.241C177.315 165.751 178.821 162.345 179.803 161.166C180.392 160.445 180.981 160.052 181.898 160.052C182.945 160.052 183.535 160.707 183.535 161.755C183.535 162.672 183.142 163.262 182.553 163.721H181.505C181.44 163.196 181.178 162.934 180.72 162.934C179.476 162.934 177.97 165.817 176.072 171.582H172.995L174.5 163.196C174.566 162.934 174.566 162.541 174.566 162.41C174.566 162.083 174.435 161.886 174.173 161.886C173.715 161.886 173.257 162.41 172.602 163.065L171.816 162.41C173.126 160.641 174.37 159.986 175.875 159.986C177.25 159.986 177.708 160.707 177.708 161.821C177.708 162.214 177.643 162.803 177.446 163.524L176.268 168.175H176.399V168.241Z" fill="#F7F7F2"/>
<path d="M191.52 166.145H191.455C191.127 166.996 190.8 167.717 190.014 168.962C188.836 170.862 187.527 171.844 186.086 171.844C184.384 171.844 183.402 170.469 183.402 168.307C183.402 163.917 186.61 160.052 190.669 160.052C191.847 160.052 192.764 160.445 193.418 161.166L194.793 159.921H195.972L195.186 162.345C194.531 164.965 193.942 168.307 193.942 169.486C193.942 169.879 194.073 170.075 194.335 170.075C194.793 170.075 195.186 169.682 195.841 168.962L196.561 169.617C195.317 171.124 194.204 171.844 192.633 171.844C191.324 171.844 190.734 171.124 190.734 169.879C190.734 168.962 191.193 167.324 191.52 166.145ZM190.014 167.193C191.062 165.49 191.913 163.131 192.109 161.886C191.847 161.559 191.389 161.362 190.734 161.362C188.181 161.362 186.414 165.031 186.414 167.979C186.414 169.093 186.676 169.813 187.396 169.813C188.247 169.748 189.032 168.896 190.014 167.193Z" fill="#F7F7F2"/>
<path d="M153.879 188.812H153.945C155.909 183.964 157.676 180.689 160.36 180.689C161.669 180.689 162.324 181.54 162.324 182.785C162.324 184.816 160.884 188.747 160.884 190.123C160.884 190.516 161.015 190.712 161.277 190.712C161.735 190.712 162.128 190.319 162.782 189.598L163.502 190.254C162.259 191.76 161.146 192.481 159.575 192.481C158.2 192.481 157.545 191.76 157.545 190.516C157.545 188.747 158.985 185.144 158.985 183.44C158.985 183.113 158.92 182.851 158.593 182.851C157.48 182.851 155.058 187.371 153.552 192.219H150.475C151.064 189.205 151.981 185.34 151.981 183.44C151.981 183.113 151.915 182.785 151.588 182.785C150.475 182.785 148.118 187.24 146.613 192.153H143.536L145.041 183.768C145.107 183.506 145.107 183.113 145.107 182.982C145.107 182.654 144.976 182.457 144.714 182.457C144.256 182.457 143.798 182.982 143.143 183.637L142.357 182.982C143.667 181.213 144.911 180.558 146.416 180.558C147.791 180.558 148.249 181.278 148.249 182.392C148.249 182.785 148.184 183.375 147.987 184.095L146.809 188.747H146.874C148.838 183.899 150.606 180.623 153.29 180.623C154.599 180.623 155.123 181.409 155.123 182.589C155.123 183.375 154.927 184.488 154.599 185.733L153.879 188.812Z" fill="#F7F7F2"/>
<path d="M172.928 186.716H172.863C172.535 187.502 172.208 188.288 171.422 189.533C170.244 191.433 168.935 192.416 167.495 192.416C165.793 192.416 164.811 191.04 164.811 188.878C164.811 184.488 168.018 180.623 172.077 180.623C173.255 180.623 174.172 181.016 174.827 181.737L176.201 180.492H177.38L176.594 182.916C175.94 185.537 175.35 188.878 175.35 190.057C175.35 190.45 175.481 190.647 175.743 190.647C176.201 190.647 176.594 190.254 177.249 189.533L177.969 190.188C176.725 191.695 175.612 192.416 174.041 192.416C172.732 192.416 172.143 191.695 172.143 190.45C172.143 189.599 172.601 187.961 172.928 186.716ZM171.422 187.764C172.47 186.061 173.321 183.702 173.517 182.458C173.255 182.13 172.797 181.933 172.143 181.933C169.655 181.933 167.822 185.602 167.822 188.55C167.822 189.664 168.084 190.385 168.804 190.385C169.655 190.385 170.44 189.468 171.422 187.764Z" fill="#F7F7F2"/>
<path d="M188.64 183.375C188.64 183.113 188.575 182.85 188.247 182.85C187.134 182.85 184.581 187.109 182.945 192.219H179.868L181.373 183.833C181.439 183.571 181.439 183.178 181.439 183.047C181.439 182.719 181.308 182.523 181.046 182.523C180.588 182.523 180.13 183.047 179.475 183.702L178.689 183.047C179.999 181.278 181.243 180.623 182.748 180.623C184.123 180.623 184.581 181.344 184.581 182.457C184.581 182.85 184.516 183.44 184.319 184.161L183.141 188.747H183.207C185.301 183.637 187.331 180.689 189.884 180.689C191.193 180.689 191.848 181.475 191.848 182.785C191.848 184.619 190.342 188.878 190.342 190.122C190.342 190.516 190.473 190.712 190.735 190.712C191.193 190.712 191.586 190.319 192.241 189.598L192.961 190.253C191.717 191.76 190.604 192.481 189.033 192.481C187.658 192.481 187.069 191.76 187.069 190.581C187.2 188.943 188.64 184.947 188.64 183.375Z" fill="#F7F7F2"/>
<path d="M198.394 188.747C198.263 189.402 198.263 189.664 198.263 189.991C198.263 190.319 198.46 190.581 198.853 190.581C199.573 190.581 200.489 189.926 201.537 188.681L202.322 189.402C200.882 191.433 199.245 192.481 197.478 192.481C195.972 192.481 195.252 191.76 195.252 190.384C195.252 189.991 195.317 189.467 195.448 188.681L196.627 182.261H195.121L195.317 181.278C196.954 180.623 198.329 179.509 199.442 178.396H200.489L200.096 180.885H202.977L202.715 182.261H199.769L198.394 188.747Z" fill="#F7F7F2"/>
<path d="M213.386 189.074C212.273 191.236 210.44 192.481 208.018 192.481C205.137 192.481 203.697 190.778 203.697 188.026C203.697 184.488 206.381 180.688 210.375 180.688C212.47 180.688 213.648 181.606 213.648 183.244C213.648 186.061 210.047 186.978 206.84 187.633V187.895C206.84 189.664 207.494 190.646 208.869 190.646C210.375 190.646 211.553 189.86 212.535 188.485L213.386 189.074ZM206.905 186.585C209.655 185.798 210.964 184.75 210.964 183.047C210.964 182.326 210.702 181.933 209.982 181.933C208.345 181.933 207.101 184.161 206.905 186.585Z" fill="#F7F7F2"/>
<path d="M219.147 188.878C220.063 186.388 221.569 182.982 222.551 181.802C223.14 181.082 223.73 180.689 224.646 180.689C225.693 180.689 226.283 181.344 226.283 182.392C226.283 183.309 225.89 183.899 225.301 184.357H224.253C224.188 183.833 223.926 183.571 223.468 183.571C222.224 183.571 220.718 186.454 218.82 192.219H215.743L217.249 183.833C217.314 183.571 217.314 183.178 217.314 183.047C217.314 182.719 217.183 182.523 216.921 182.523C216.463 182.523 216.005 183.047 215.35 183.702L214.564 183.047C215.874 181.278 217.118 180.623 218.623 180.623C219.998 180.623 220.456 181.344 220.456 182.457C220.456 182.85 220.391 183.44 220.194 184.161L219.016 188.812H219.147V188.878Z" fill="#F7F7F2"/>
<path d="M150.868 207.287H150.802C150.475 208.139 150.148 208.86 149.362 210.104C148.184 212.004 146.874 212.987 145.434 212.987C143.732 212.987 142.75 211.611 142.75 209.449C142.75 205.06 145.958 201.195 150.017 201.195C151.195 201.195 152.111 201.588 152.766 202.308L154.141 201.063H155.319L154.534 203.487C153.879 206.108 153.29 209.449 153.29 210.628C153.29 211.021 153.421 211.218 153.683 211.218C154.141 211.218 154.534 210.825 155.188 210.104L155.908 210.759C154.665 212.266 153.552 212.987 151.981 212.987C150.671 212.987 150.082 212.266 150.082 211.021C150.148 210.17 150.54 208.532 150.868 207.287ZM149.362 208.335C150.409 206.632 151.26 204.274 151.457 203.029C151.195 202.701 150.737 202.505 150.082 202.505C147.529 202.505 145.761 206.174 145.761 209.122C145.761 210.235 146.023 210.956 146.743 210.956C147.594 210.956 148.38 210.039 149.362 208.335Z" fill="#F7F7F2"/>
<path d="M172.34 209.383H172.406C174.37 204.535 176.137 201.26 178.821 201.26C180.13 201.26 180.785 202.112 180.785 203.356C180.785 205.322 179.345 209.318 179.345 210.694C179.345 211.087 179.476 211.283 179.738 211.283C180.196 211.283 180.589 210.89 181.243 210.17L181.963 210.825C180.72 212.332 179.607 213.052 178.036 213.052C176.661 213.052 176.072 212.332 176.072 211.087C176.072 209.318 177.512 205.715 177.512 204.011C177.512 203.684 177.446 203.422 177.119 203.422C176.006 203.422 173.584 207.942 172.078 212.79H169.001C169.591 209.777 170.507 205.911 170.507 204.077C170.507 203.749 170.442 203.422 170.114 203.422C169.001 203.422 166.645 207.877 165.139 212.79H162.062L163.502 204.404C163.568 204.142 163.568 203.749 163.568 203.618C163.568 203.291 163.437 203.094 163.175 203.094C162.717 203.094 162.259 203.618 161.604 204.273L160.818 203.618C162.128 201.849 163.371 201.194 164.877 201.194C166.252 201.194 166.71 201.915 166.71 203.029C166.71 203.422 166.645 204.011 166.448 204.732L165.27 209.383H165.335C167.299 204.535 169.067 201.26 171.751 201.26C173.06 201.26 173.584 202.046 173.584 203.225C173.584 204.011 173.388 205.125 173.06 206.37L172.34 209.383Z" fill="#F7F7F2"/>
<path d="M192.7 204.928H192.634C190.605 210.104 188.575 213.052 186.219 213.052C184.778 213.052 184.189 212.2 184.189 210.89C184.189 208.99 185.629 205.19 185.629 203.684C185.629 203.356 185.498 203.159 185.237 203.159C184.778 203.159 184.32 203.684 183.665 204.339L182.945 203.684C184.189 201.915 185.498 201.26 187.004 201.26C188.379 201.26 188.837 201.98 188.837 203.094C188.837 204.797 187.397 208.532 187.397 210.169C187.397 210.562 187.462 210.825 187.79 210.825C189.099 210.825 191.325 206.239 192.961 201.522H196.038C195.514 204.339 194.467 209.645 194.467 210.759C194.467 211.152 194.598 211.349 194.86 211.349C195.318 211.349 195.711 210.956 196.366 210.235L197.151 210.89C195.907 212.397 194.794 213.117 193.223 213.117C191.848 213.117 191.259 212.397 191.259 211.152C191.259 209.842 192.045 207.352 192.7 204.928ZM196.496 196.019L191.652 200.408H190.015L192.7 196.019H196.496Z" fill="#F7F7F2"/>
<path d="M203.566 210.694C203.566 208.925 199.179 207.811 199.179 204.732C199.179 202.767 200.882 201.26 203.435 201.26C205.333 201.26 206.642 201.98 206.642 203.225C206.642 203.749 206.381 204.142 205.857 204.404H204.678C204.417 203.225 203.696 202.57 202.649 202.57C201.929 202.57 201.471 202.898 201.471 203.487C201.471 205.191 206.053 206.566 206.053 209.514C206.053 211.48 204.286 213.052 201.602 213.052C199.376 213.052 197.805 212.135 197.805 210.759C197.805 210.104 198.197 209.645 198.721 209.383H199.769C200.096 211.021 201.012 211.807 202.125 211.807C203.042 211.807 203.566 211.349 203.566 210.694Z" fill="#F7F7F2"/>
<path d="M212.404 210.693C212.404 211.087 212.535 211.283 212.797 211.283C213.255 211.283 213.648 210.89 214.302 210.169L215.022 210.824C213.779 212.331 212.666 213.052 211.095 213.052C209.72 213.052 209.131 212.331 209.131 211.087C209.131 209.514 210.505 205.19 210.505 203.618C210.505 203.29 210.374 203.094 210.047 203.094C209.589 203.094 209.131 203.618 208.476 204.273L207.756 203.618C209 201.849 210.309 201.194 211.815 201.194C213.189 201.194 213.648 201.915 213.648 203.028C213.779 204.797 212.404 209.383 212.404 210.693ZM210.964 198.115C210.964 197.001 211.749 196.084 212.993 196.084C214.106 196.084 214.826 196.87 214.826 197.853C214.826 198.967 213.975 199.818 212.797 199.818C211.618 199.884 210.964 199.163 210.964 198.115Z" fill="#F7F7F2"/>
<path d="M219.54 208.204C219.54 210.039 220.063 211.218 221.504 211.218C222.617 211.218 223.664 210.432 224.581 209.318L225.432 209.908C224.45 211.611 222.813 212.987 220.587 212.987C217.903 212.987 216.463 211.218 216.463 208.663C216.463 204.732 219.343 201.26 223.206 201.26C224.973 201.26 226.086 202.046 226.086 203.291C226.086 204.011 225.693 204.535 225.17 204.797H223.729C223.664 203.422 223.468 202.505 222.551 202.505C220.587 202.505 219.54 205.846 219.54 208.204Z" fill="#F7F7F2"/>
<path d="M235.186 207.287H235.121C234.793 208.139 234.466 208.86 233.68 210.104C232.502 212.004 231.193 212.987 229.752 212.987C228.05 212.987 227.068 211.611 227.068 209.449C227.068 205.06 230.276 201.195 234.335 201.195C235.513 201.195 236.43 201.588 237.084 202.308L238.459 201.063H239.638L238.852 203.487C238.197 206.108 237.608 209.449 237.608 210.628C237.608 211.021 237.739 211.218 238.001 211.218C238.459 211.218 238.852 210.825 239.507 210.104L240.227 210.759C238.983 212.266 237.87 212.987 236.299 212.987C234.99 212.987 234.4 212.266 234.4 211.021C234.4 210.17 234.859 208.532 235.186 207.287ZM233.615 208.335C234.662 206.632 235.513 204.274 235.71 203.029C235.448 202.701 234.99 202.505 234.335 202.505C231.782 202.505 230.014 206.174 230.014 209.122C230.014 210.235 230.276 210.956 230.996 210.956C231.847 210.956 232.633 210.039 233.615 208.335Z" fill="#F7F7F2"/>
<path d="M150.016 223.338V222.617C150.409 222.159 151.063 221.831 151.784 221.831C153.355 221.831 153.944 222.945 153.944 224.255C153.944 227.269 150.278 230.872 146.939 233.558H145.957C145.564 229.824 145.106 226.548 144.713 225.107C144.517 224.386 144.452 223.796 143.993 223.796C143.535 223.796 143.142 224.255 142.619 224.91L141.898 224.255C142.946 222.617 144.19 221.831 145.499 221.831C146.874 221.831 147.267 222.617 147.594 223.927C147.987 225.5 148.314 228.579 148.379 230.741C150.278 228.841 151.522 227.334 151.522 225.369C151.653 224.321 151.129 223.534 150.016 223.338Z" fill="#F7F7F2"/>
<path d="M159.509 231.265C159.509 231.658 159.64 231.854 159.902 231.854C160.36 231.854 160.753 231.461 161.408 230.74L162.128 231.396C160.884 232.902 159.771 233.623 158.2 233.623C156.825 233.623 156.236 232.902 156.236 231.658C156.236 230.085 157.611 225.761 157.611 224.189C157.611 223.862 157.48 223.665 157.153 223.665C156.694 223.665 156.236 224.189 155.581 224.844L154.861 224.189C156.105 222.42 157.48 221.765 158.92 221.765C160.295 221.765 160.753 222.486 160.753 223.599C160.884 225.368 159.509 229.954 159.509 231.265ZM158.069 218.752C158.069 217.638 158.855 216.786 160.098 216.786C161.211 216.786 161.932 217.572 161.932 218.555C161.932 219.669 161.146 220.52 159.902 220.52C158.724 220.455 158.069 219.734 158.069 218.752Z" fill="#F7F7F2"/>
<path d="M170.573 223.338V222.617C170.965 222.159 171.62 221.831 172.34 221.831C173.911 221.831 174.501 222.945 174.501 224.255C174.501 227.269 170.835 230.872 167.496 233.558H166.514C166.121 229.824 165.663 226.548 165.27 225.107C165.074 224.386 165.008 223.796 164.55 223.796C164.092 223.796 163.699 224.255 163.175 224.91L162.455 224.255C163.503 222.617 164.746 221.831 166.056 221.831C167.43 221.831 167.823 222.617 168.15 223.927C168.543 225.5 168.871 228.579 168.936 230.741C170.835 228.841 172.078 227.334 172.078 225.369C172.209 224.321 171.751 223.534 170.573 223.338Z" fill="#F7F7F2"/>
<path d="M183.664 227.924H183.599C183.272 228.71 182.944 229.496 182.159 230.741C180.98 232.641 179.671 233.624 178.231 233.624C176.529 233.624 175.547 232.248 175.547 230.086C175.547 225.697 178.755 221.831 182.813 221.831C183.992 221.831 184.908 222.224 185.563 222.945L186.938 221.7H188.116L187.33 224.059C186.676 226.679 186.087 230.086 186.087 231.265C186.087 231.658 186.218 231.855 186.479 231.855C186.938 231.855 187.33 231.462 187.985 230.741L188.705 231.396C187.461 232.903 186.349 233.624 184.777 233.624C183.468 233.624 182.879 232.903 182.879 231.658C182.879 230.741 183.337 229.103 183.664 227.924ZM182.159 228.972C183.206 227.269 184.057 224.91 184.254 223.666C183.992 223.338 183.534 223.141 182.879 223.141C180.326 223.141 178.558 226.81 178.558 229.758C178.558 230.872 178.82 231.593 179.54 231.593C180.391 231.527 181.111 230.675 182.159 228.972Z" fill="#F7F7F2"/>
<path d="M13.7837 72.9201V110.59H31.721V122.121H13.7837V159.987H31.9829V171.649H-0.0292969V61.2588H31.9829V72.9201H13.7837Z" fill="#005EFF"/>
<path d="M83.6998 176.758C83.6998 192.481 75.0585 197.525 62.031 197.525C49.0691 197.525 40.4277 192.481 40.4277 176.758V105.61C40.4277 89.8873 49.0691 84.8428 62.031 84.8428C75.124 84.8428 83.6998 89.8873 83.6998 105.61V122.054H69.8213V105.676C69.8213 98.6005 66.4172 96.5696 62.031 96.5696C57.7758 96.5696 54.2408 98.6005 54.2408 105.676V176.692C54.2408 183.637 57.7758 185.799 62.031 185.799C66.4172 185.799 69.8213 183.637 69.8213 176.692V159.921H83.6998V176.758Z" fill="white"/>
<path d="M124.484 122.121H105.303L102.881 144.723H89.5918L102.292 34.333H127.365L140.065 144.723H126.841L124.484 122.121ZM123.11 110.59L116.17 46.9115H113.421L106.613 110.59H123.11Z" fill="#A89157"/>
<path d="M165.333 0.200195C178.753 0.200195 187.853 4.58958 187.853 20.9679V88.7085C187.853 105.873 179.343 110.59 165.333 110.59H144.646V0.200195H165.333ZM165.53 98.9286C170.57 98.9286 174.106 97.2908 174.106 89.5602V20.7713C174.106 13.1718 170.701 11.796 165.792 11.796H158.525V98.9286H165.53Z" fill="#FC4D40"/>
</g>
<defs>
<clipPath id="clip0_2361_5705">
<rect width="240" height="234" fill="white"/>
</clipPath>
</defs>
</svg>
